<svg width="60" height="60" viewBox="0 0 60 60" fill="none" xmlns="http://www.w3.org/2000/svg">
<g clip-path="url(#clip0)">
<path d="M45.2344 33.6875C46.5288 33.6875 47.5781 32.6382 47.5781 31.3438C47.5781 30.0493 46.5288 29 45.2344 29C43.94 29 42.8906 30.0493 42.8906 31.3438C42.8906 32.6382 43.94 33.6875 45.2344 33.6875Z" fill="#2B0159"/>
<path d="M50.625 5.6875H47.5781V3.34375C47.5781 2.0493 46.5288 1 45.2344 1C43.9399 1 42.8906 2.0493 42.8906 3.34375V5.6875H32.2266V3.34375C32.2266 2.0493 31.1773 1 29.8828 1C28.5884 1 27.5391 2.0493 27.5391 3.34375V5.6875H16.9922V3.34375C16.9922 2.0493 15.9429 1 14.6484 1C13.354 1 12.3047 2.0493 12.3047 3.34375V5.6875H9.375C4.20563 5.6875 0 9.89313 0 15.0625V51.625C0 56.7944 4.20563 61 9.375 61H27.3047C28.5991 61 29.6484 59.9507 29.6484 58.6562C29.6484 57.3618 28.5991 56.3125 27.3047 56.3125H9.375C6.79031 56.3125 4.6875 54.2097 4.6875 51.625V15.0625C4.6875 12.4778 6.79031 10.375 9.375 10.375H12.3047V12.7188C12.3047 14.0132 13.354 15.0625 14.6484 15.0625C15.9429 15.0625 16.9922 14.0132 16.9922 12.7188V10.375H27.5391V12.7188C27.5391 14.0132 28.5884 15.0625 29.8828 15.0625C31.1773 15.0625 32.2266 14.0132 32.2266 12.7188V10.375H42.8906V12.7188C42.8906 14.0132 43.9399 15.0625 45.2344 15.0625C46.5288 15.0625 47.5781 14.0132 47.5781 12.7188V10.375H50.625C53.2097 10.375 55.3125 12.4778 55.3125 15.0625V28.4219C55.3125 29.7163 56.3618 30.7656 57.6562 30.7656C58.9507 30.7656 60 29.7163 60 28.4219V15.0625C60 9.89313 55.7944 5.6875 50.625 5.6875Z" fill="#2B0159"/>
<path d="M45.8203 31.6406C38.0016 31.6406 31.6406 38.0016 31.6406 45.8203C31.6406 53.6391 38.0016 60 45.8203 60C53.6391 60 60 53.6391 60 45.8203C60 38.0016 53.6391 31.6406 45.8203 31.6406ZM45.8203 55.3125C40.5864 55.3125 36.3281 51.0544 36.3281 45.8203C36.3281 40.5863 40.5864 36.3281 45.8203 36.3281C51.0543 36.3281 55.3125 40.5863 55.3125 45.8203C55.3125 51.0544 51.0543 55.3125 45.8203 55.3125Z" fill="#2B0159"/>
<path d="M49.2188 43.4766H48.1641V41.0156C48.1641 39.7212 47.1148 38.6719 45.8203 38.6719C44.5259 38.6719 43.4766 39.7212 43.4766 41.0156V45.8203C43.4766 47.1148 44.5259 48.1641 45.8203 48.1641H49.2188C50.5132 48.1641 51.5625 47.1148 51.5625 45.8203C51.5625 44.5259 50.5132 43.4766 49.2188 43.4766Z" fill="#2B0159"/>
<path d="M35.0391 26.9531C36.3335 26.9531 37.3828 25.9038 37.3828 24.6094C37.3828 23.315 36.3335 22.2656 35.0391 22.2656C33.7446 22.2656 32.6953 23.315 32.6953 24.6094C32.6953 25.9038 33.7446 26.9531 35.0391 26.9531Z" fill="#2B0159"/>
<path d="M24.8438 37.1484C26.1382 37.1484 27.1875 36.0991 27.1875 34.8047C27.1875 33.5103 26.1382 32.4609 24.8438 32.4609C23.5493 32.4609 22.5 33.5103 22.5 34.8047C22.5 36.0991 23.5493 37.1484 24.8438 37.1484Z" fill="#2B0159"/>
<path d="M14.6484 33.6875C15.9429 33.6875 16.9922 32.6382 16.9922 31.3438C16.9922 30.0493 15.9429 29 14.6484 29C13.354 29 12.3047 30.0493 12.3047 31.3438C12.3047 32.6382 13.354 33.6875 14.6484 33.6875Z" fill="#2B0159"/>
<path d="M14.6484 37.1484C15.9429 37.1484 16.9922 36.0991 16.9922 34.8047C16.9922 33.5103 15.9429 32.4609 14.6484 32.4609C13.354 32.4609 12.3047 33.5103 12.3047 34.8047C12.3047 36.0991 13.354 37.1484 14.6484 37.1484Z" fill="#2B0159"/>
<path d="M14.6484 47.3438C15.9429 47.3438 16.9922 46.2944 16.9922 45C16.9922 43.7056 15.9429 42.6562 14.6484 42.6562C13.354 42.6562 12.3047 43.7056 12.3047 45C12.3047 46.2944 13.354 47.3438 14.6484 47.3438Z" fill="#2B0159"/>
<path d="M24.8438 47.3438C26.1382 47.3438 27.1875 46.2944 27.1875 45C27.1875 43.7056 26.1382 42.6562 24.8438 42.6562C23.5493 42.6562 22.5 43.7056 22.5 45C22.5 46.2944 23.5493 47.3438 24.8438 47.3438Z" fill="#2B0159"/>
<path d="M24.8438 26.9531C26.1382 26.9531 27.1875 25.9038 27.1875 24.6094C27.1875 23.315 26.1382 22.2656 24.8438 22.2656C23.5493 22.2656 22.5 23.315 22.5 24.6094C22.5 25.9038 23.5493 26.9531 24.8438 26.9531Z" fill="#2B0159"/>
</g>
<defs>
<clipPath id="clip0">
<rect width="60" height="60" fill="white"/>
</clipPath>
</defs>
</svg>
