<svg width="60" height="60" viewBox="0 0 60 60" fill="none" xmlns="http://www.w3.org/2000/svg">
<g clip-path="url(#clip0)">
<path d="M30 2C13.425 2 -7.62939e-06 15.2 -7.62939e-06 31.48C-7.62939e-06 44.5075 8.59499 55.555 20.5125 59.45C22.0125 59.7275 22.5625 58.815 22.5625 58.0325C22.5625 57.3325 22.5375 55.4775 22.525 53.02C14.18 54.7975 12.42 49.065 12.42 49.065C11.055 45.6625 9.08249 44.7525 9.08249 44.7525C6.36499 42.925 9.29249 42.9625 9.29249 42.9625C12.305 43.1675 13.8875 46 13.8875 46C16.5625 50.5075 20.91 49.205 22.625 48.4525C22.895 46.545 23.6675 45.2475 24.525 44.51C17.8625 43.7725 10.86 41.2375 10.86 29.9425C10.86 26.725 12.0225 24.095 13.9475 22.0325C13.61 21.2875 12.5975 18.29 14.21 14.23C14.21 14.23 16.7225 13.44 22.46 17.2525C24.86 16.5975 27.41 16.2725 29.96 16.2575C32.51 16.2725 35.06 16.5975 37.46 17.2525C43.16 13.44 45.6725 14.23 45.6725 14.23C47.285 18.29 46.2725 21.2875 45.9725 22.0325C47.885 24.095 49.0475 26.725 49.0475 29.9425C49.0475 41.2675 42.035 43.76 35.36 44.485C36.41 45.37 37.385 47.1775 37.385 49.94C37.385 53.885 37.3475 57.055 37.3475 58.0125C37.3475 58.785 37.8725 59.7075 39.41 59.4125C51.4125 55.5425 60 44.4875 60 31.48C60 15.2 46.5675 2 30 2Z" fill="#2B0159"/>
</g>
<defs>
<clipPath id="clip0">
<rect width="60" height="60" fill="white"/>
</clipPath>
</defs>
</svg>
